# xmcd
#
# Track frame offsets: 
#        150
#        9542
#        29338
#        46871
#        91491
#        102291
#        119380
#        133485
#        154075
#        183438
#        194524
#        213049
#
# Disc length: 3232 seconds
#
# Revision: 9
# Processed by: cddbd v1.5.2PL0 Copyright (c) Steve Scherf et al.
# Submitted via: ExactAudioCopyFreeDBPlugin 1.0
#
DISCID=a20c9e0c
DTITLE=The Derek Trucks Band - Songlines {2017,RE,EU,Columbia,88985408
DTITLE=632-CD4}
DYEAR=2006
DGENRE=Blues
TTITLE0=Volunteered Slavery
TTITLE1=I'll Find My Way
TTITLE2=Crow Jane
TTITLE3=Sahib Teri Bandi - Maki Madni
TTITLE4=Chevrolet
TTITLE5=Sailing On
TTITLE6=Revolution
TTITLE7=I'd Rather Be Blind, Crippled and Crazy
TTITLE8=All I Do
TTITLE9=Mahjoun
TTITLE10=I Wish I Knew (How It Would Feel To Be Free)
TTITLE11=This Sky
EXTD=
EXTT0=
EXTT1=
EXTT2=
EXTT3=
EXTT4=
EXTT5=
EXTT6=
EXTT7=
EXTT8=
EXTT9=
EXTT10=
EXTT11=
PLAYORDER=
